<svg width="25" height="19" viewBox="0 0 25 19" fill="none" xmlns="http://www.w3.org/2000/svg">
<path d="M1.45148 13.484H22.6986C23.429 13.484 24.0265 12.8865 24.0265 12.1561C24.0265 11.4257 23.429 10.8281 22.6986 10.8281H1.45148C0.72111 10.8281 0.123535 11.4257 0.123535 12.1561C0.123535 12.8865 0.72111 13.484 1.45148 13.484ZM1.45148 18.7958H22.6986C23.429 18.7958 24.0265 18.1982 24.0265 17.4679C24.0265 16.7375 23.429 16.1399 22.6986 16.1399H1.45148C0.72111 16.1399 0.123535 16.7375 0.123535 17.4679C0.123535 18.1982 0.72111 18.7958 1.45148 18.7958ZM1.45148 8.17226H22.6986C23.429 8.17226 24.0265 7.57468 24.0265 6.84431C24.0265 6.11395 23.429 5.51637 22.6986 5.51637H1.45148C0.72111 5.51637 0.123535 6.11395 0.123535 6.84431C0.123535 7.57468 0.72111 8.17226 1.45148 8.17226ZM0.123535 1.53253C0.123535 2.2629 0.72111 2.86048 1.45148 2.86048H22.6986C23.429 2.86048 24.0265 2.2629 24.0265 1.53253C24.0265 0.802165 23.429 0.20459 22.6986 0.20459H1.45148C0.72111 0.20459 0.123535 0.802165 0.123535 1.53253Z" fill="#F9BE6B"/>
</svg>
