<svg width="41" height="38" viewBox="0 0 41 38" fill="none" xmlns="http://www.w3.org/2000/svg">
<g id="mdi:instagram">
<path id="Vector" d="M13.7267 3.6661L27.7267 3.67117C33.0601 3.67311 37.392 7.63445 37.3902 12.508L37.3856 25.3011C37.3847 27.6439 36.3654 29.8903 34.552 31.5462C32.7385 33.2021 30.2794 34.1319 27.7157 34.1309L13.7157 34.1259C8.38236 34.1239 4.05046 30.1626 4.05222 25.289L4.05686 12.4959C4.05771 10.1532 5.07697 7.90676 6.89042 6.25085C8.70387 4.59493 11.163 3.66517 13.7267 3.6661ZM13.3923 6.71196C11.801 6.71138 10.2747 7.28847 9.14907 8.31628C8.02348 9.34409 7.39083 10.7384 7.3903 12.1925L7.38545 25.5948C7.38435 28.6256 10.0668 31.0786 13.3835 31.0798L28.0501 31.0851C29.6414 31.0857 31.1678 30.5086 32.2933 29.4808C33.4189 28.453 34.0516 27.0586 34.0521 25.6045L34.057 12.2022C34.0581 9.17146 31.3756 6.71847 28.059 6.71727L13.3923 6.71196ZM29.4748 9.00227C30.0273 9.00247 30.5572 9.20323 30.9477 9.56039C31.3383 9.91755 31.5576 10.4019 31.5574 10.9068C31.5573 11.4117 31.3376 11.8958 30.9468 12.2527C30.5559 12.6096 30.0259 12.8099 29.4734 12.8097C28.9209 12.8095 28.391 12.6088 28.0005 12.2516C27.6099 11.8945 27.3906 11.4101 27.3908 10.9052C27.391 10.4003 27.6106 9.9162 28.0015 9.55932C28.3923 9.20245 28.9223 9.00207 29.4748 9.00227ZM20.724 11.2836C22.9341 11.2844 25.0534 12.0874 26.6157 13.5161C28.178 14.9447 29.0553 16.8819 29.0545 18.9015C29.0538 20.9211 28.1751 22.8577 26.6118 24.2852C25.0485 25.7127 22.9286 26.5143 20.7184 26.5135C18.5083 26.5127 16.389 25.7096 14.8267 24.281C13.2644 22.8523 12.3871 20.9151 12.3879 18.8955C12.3886 16.8759 13.2673 14.9393 14.8306 13.5118C16.3939 12.0843 18.5138 11.2828 20.724 11.2836ZM20.7229 14.3296C19.3968 14.3291 18.1248 14.81 17.1868 15.6665C16.2489 16.523 15.7216 17.6849 15.7212 18.8967C15.7208 20.1085 16.2471 21.2708 17.1845 22.128C18.1219 22.9852 19.3935 23.467 20.7196 23.4675C22.0456 23.468 23.3176 22.9871 24.2556 22.1305C25.1936 21.274 25.7208 20.1121 25.7212 18.9003C25.7216 17.6886 25.1953 16.5262 24.2579 15.6691C23.3205 14.8119 22.0489 14.33 20.7229 14.3296Z" fill="#FEE59A"/>
</g>
</svg>
