<svg width="34" height="34" viewBox="0 0 34 34" fill="none" xmlns="http://www.w3.org/2000/svg">
<g clip-path="url(#clip0_157_233)">
<path d="M21.9582 19.8334H20.839L20.4423 19.4509C22.1423 17.4675 23.0207 14.7617 22.539 11.8859C21.8732 7.94753 18.5865 4.80253 14.6198 4.32087C8.62735 3.5842 3.58402 8.62753 4.32068 14.62C4.80235 18.5867 7.94735 21.8734 11.8857 22.5392C14.7615 23.0209 17.4673 22.1425 19.4507 20.4425L19.8332 20.8392V21.9584L25.854 27.9792C26.4348 28.56 27.384 28.56 27.9648 27.9792C28.5457 27.3984 28.5457 26.4492 27.9648 25.8684L21.9582 19.8334ZM13.4582 19.8334C9.93068 19.8334 7.08318 16.9859 7.08318 13.4584C7.08318 9.93086 9.93068 7.08336 13.4582 7.08336C16.9857 7.08336 19.8332 9.93086 19.8332 13.4584C19.8332 16.9859 16.9857 19.8334 13.4582 19.8334Z" fill="#FEE59A"/>
</g>
<defs>
<clipPath id="clip0_157_233">
<rect width="34" height="34" fill="white"/>
</clipPath>
</defs>
</svg>
