<svg width="41" height="38" viewBox="0 0 41 38" fill="none" xmlns="http://www.w3.org/2000/svg">
<g id="ic:baseline-tiktok">
<path id="Vector" d="M28.3914 9.43662C27.2526 8.2477 26.6253 6.72115 26.6263 5.14115L21.4763 5.13928L21.4695 24.0243C21.4294 25.0463 20.9569 26.0141 20.1515 26.724C19.346 27.4339 18.2705 27.8305 17.1514 27.8302C14.7848 27.8294 12.8188 26.062 12.8195 23.8689C12.8205 21.2494 15.5879 19.2857 18.4376 20.0939L18.4393 15.2813C12.6896 14.5786 7.65477 18.6584 7.65288 23.867C7.65104 28.9386 12.2497 32.5497 17.1331 32.5515C22.3664 32.5534 26.6178 28.6713 26.6195 23.8739L26.623 14.2943C28.7109 15.6655 31.2179 16.4017 33.7889 16.3986L33.7906 11.6926C33.7906 11.6926 30.6572 11.8285 28.3914 9.43662Z" fill="#FEE59A"/>
</g>
</svg>
