<svg width="41" height="38" viewBox="0 0 41 38" fill="none" xmlns="http://www.w3.org/2000/svg">
<g id="mdi:twitter">
<path id="Vector" d="M38.1578 9.74074C36.8743 10.2733 35.4908 10.6231 34.0574 10.7901C35.5244 9.98346 36.6582 8.70456 37.1921 7.16654C35.8085 7.92753 34.2749 8.46002 32.6581 8.76403C31.342 7.45379 29.4922 6.69162 27.3922 6.69086C23.4756 6.68944 20.2745 9.61242 20.2732 13.2219C20.273 13.7397 20.3395 14.2423 20.456 14.7145C14.5228 14.4382 9.24037 11.832 5.72513 7.88617C5.10812 8.84543 4.75771 9.97232 4.75728 11.1602C4.75646 13.4295 6.00573 15.4403 7.93865 16.5832C6.75532 16.5828 5.65543 16.2778 4.68893 15.8206L4.68891 15.8663C4.68776 19.0341 7.15347 21.685 10.4199 22.2801C9.37103 22.542 8.26997 22.5781 7.20321 22.3856C7.65542 23.684 8.54156 24.8204 9.73706 25.6349C10.9326 26.4494 12.3773 26.9011 13.8682 26.9265C11.3403 28.7538 8.20721 29.7409 4.98389 29.7256C4.41722 29.7254 3.85056 29.6947 3.28392 29.6336C6.44991 31.4928 10.2162 32.5754 14.2495 32.5769C27.3829 32.5817 34.6031 22.6239 34.6063 13.9886C34.6064 13.6992 34.6065 13.4251 34.5899 13.1357C35.9902 12.2224 37.1906 11.0654 38.1578 9.74074Z" fill="#FEE59A"/>
</g>
</svg>
