<svg width="132" height="132" viewBox="0 0 132 132" fill="none" xmlns="http://www.w3.org/2000/svg">
<g filter="url(#filter0_d_1315_3891)">
<path d="M62 59.9997C66.328 59.9997 69.8334 56.4943 69.8334 52.1663C69.8334 47.8384 66.328 44.333 62 44.333C57.6721 44.333 54.1667 47.8384 54.1667 52.1663C54.1667 56.4943 57.6721 59.9997 62 59.9997ZM62 63.9163C56.7713 63.9163 46.3334 66.5405 46.3334 71.7497V73.708C46.3334 74.7851 47.2146 75.6663 48.2917 75.6663H75.7084C76.7855 75.6663 77.6667 74.7851 77.6667 73.708V71.7497C77.6667 66.5405 67.2288 63.9163 62 63.9163Z" fill="url(#paint0_linear_1315_3891)"/>
</g>
<defs>
<filter id="filter0_d_1315_3891" x="0.333374" y="0.333008" width="131.333" height="131.333" filterUnits="userSpaceOnUse" color-interpolation-filters="sRGB">
<feFlood flood-opacity="0" result="BackgroundImageFix"/>
<feColorMatrix in="SourceAlpha" type="matrix" values="0 0 0 0 0 0 0 0 0 0 0 0 0 0 0 0 0 0 127 0" result="hardAlpha"/>
<feOffset dx="4" dy="6"/>
<feGaussianBlur stdDeviation="25"/>
<feComposite in2="hardAlpha" operator="out"/>
<feColorMatrix type="matrix" values="0 0 0 0 1 0 0 0 0 0.74902 0 0 0 0 0.317647 0 0 0 1 0"/>
<feBlend mode="normal" in2="BackgroundImageFix" result="effect1_dropShadow_1315_3891"/>
<feBlend mode="normal" in="SourceGraphic" in2="effect1_dropShadow_1315_3891" result="shape"/>
</filter>
<linearGradient id="paint0_linear_1315_3891" x1="62" y1="44.333" x2="62" y2="75.6663" gradientUnits="userSpaceOnUse">
<stop stop-color="#FEE59A"/>
<stop offset="1" stop-color="#F1A469"/>
</linearGradient>
</defs>
</svg>
