<svg width="41" height="38" viewBox="0 0 41 38" fill="none" xmlns="http://www.w3.org/2000/svg">
<g id="ri:youtube-fill">
<path id="Vector" d="M21.1322 6.63656C22.0222 6.64145 24.2488 6.66205 26.6155 6.74972L27.4555 6.78353C29.8371 6.88644 32.217 7.06396 33.3986 7.36442C34.9734 7.77011 36.2097 8.94935 36.6275 10.4451C37.2933 12.8212 37.3749 17.4541 37.3845 18.5766L37.3861 18.8081L37.386 19.0731C37.3739 20.1955 37.2889 24.8299 36.6214 27.204C36.1975 28.704 34.9587 29.8839 33.3903 30.2823C32.2085 30.5819 29.8284 30.7578 27.4467 30.8589L26.6067 30.8937C24.24 30.9781 22.0133 30.9986 21.1233 31.0013L20.7317 31.0027L20.3067 31.0026C18.4233 30.9912 10.5467 30.9107 8.04027 30.2732C6.46709 29.8675 5.22918 28.6882 4.81139 27.1925C4.14558 24.8164 4.06393 20.1834 4.05433 19.061L4.05451 18.5645C4.06492 17.4421 4.14993 12.8076 4.81746 10.4335C5.24134 8.93356 6.4801 7.75369 8.05024 7.35676C10.5555 6.71954 18.4338 6.64472 20.3172 6.63626L21.1322 6.63656ZM17.388 13.4886L17.3842 24.1496L27.3861 18.8227L17.388 13.4886Z" fill="#FEE59A"/>
</g>
</svg>
