<svg width="35" height="36" viewBox="0 0 35 36" fill="none" xmlns="http://www.w3.org/2000/svg">
<path d="M17.4964 0.49585C7.81655 0.49585 -0.0078125 8.32021 -0.0078125 18C-0.0078125 27.6798 7.81655 35.5042 17.4964 35.5042C27.1762 35.5042 35.0005 27.6798 35.0005 18C35.0005 8.32021 27.1762 0.49585 17.4964 0.49585ZM25.0231 25.5268C24.3405 26.2095 23.2377 26.2095 22.5551 25.5268L17.4964 20.4681L12.4376 25.5268C11.755 26.2095 10.6522 26.2095 9.96956 25.5268C9.2869 24.8441 9.2869 23.7414 9.96956 23.0587L15.0283 18L9.96956 12.9413C9.2869 12.2586 9.2869 11.1559 9.96956 10.4732C10.6522 9.79056 11.755 9.79056 12.4376 10.4732L17.4964 15.5319L22.5551 10.4732C23.2377 9.79056 24.3405 9.79056 25.0231 10.4732C25.7058 11.1559 25.7058 12.2586 25.0231 12.9413L19.9644 18L25.0231 23.0587C25.6883 23.7239 25.6883 24.8441 25.0231 25.5268Z" fill="url(#paint0_linear_1240_2066)"/>
<defs>
<linearGradient id="paint0_linear_1240_2066" x1="17.4964" y1="0.49585" x2="17.4964" y2="35.5042" gradientUnits="userSpaceOnUse">
<stop stop-color="#FFD8C8"/>
<stop offset="1" stop-color="#FFD78F"/>
</linearGradient>
</defs>
</svg>
