<svg width="142" height="143" viewBox="0 0 142 143" fill="none" xmlns="http://www.w3.org/2000/svg">
<g filter="url(#filter0_d_1240_2044)">
<path d="M46 78.2429V85.3362C46 85.9896 46.5133 86.5029 47.1667 86.5029H54.26C54.5633 86.5029 54.8667 86.3862 55.0767 86.1529L80.5567 60.6962L71.8067 51.9462L46.35 77.4029C46.1167 77.6362 46 77.9162 46 78.2429ZM87.3233 53.9296C88.2333 53.0196 88.2333 51.5496 87.3233 50.6396L81.8633 45.1796C80.9533 44.2696 79.4833 44.2696 78.5733 45.1796L74.3033 49.4496L83.0533 58.1996L87.3233 53.9296Z" fill="url(#paint0_linear_1240_2044)"/>
</g>
<defs>
<filter id="filter0_d_1240_2044" x="0" y="0.49707" width="142.006" height="142.006" filterUnits="userSpaceOnUse" color-interpolation-filters="sRGB">
<feFlood flood-opacity="0" result="BackgroundImageFix"/>
<feColorMatrix in="SourceAlpha" type="matrix" values="0 0 0 0 0 0 0 0 0 0 0 0 0 0 0 0 0 0 127 0" result="hardAlpha"/>
<feOffset dx="4" dy="6"/>
<feGaussianBlur stdDeviation="25"/>
<feComposite in2="hardAlpha" operator="out"/>
<feColorMatrix type="matrix" values="0 0 0 0 1 0 0 0 0 0.74902 0 0 0 0 0.317647 0 0 0 1 0"/>
<feBlend mode="normal" in2="BackgroundImageFix" result="effect1_dropShadow_1240_2044"/>
<feBlend mode="normal" in="SourceGraphic" in2="effect1_dropShadow_1240_2044" result="shape"/>
</filter>
<linearGradient id="paint0_linear_1240_2044" x1="67.0029" y1="44.4971" x2="67.0029" y2="86.5029" gradientUnits="userSpaceOnUse">
<stop stop-color="#FFD8CA"/>
<stop offset="1" stop-color="#FFD793"/>
</linearGradient>
</defs>
</svg>
